<svg width="97" height="97" viewBox="0 0 97 97" fill="none" xmlns="http://www.w3.org/2000/svg">
<rect width="97" height="97" fill="#1A3D8A"/>
<path d="M56.9867 26C44.7262 26 34.9734 35.8921 34.9734 48.0133C34.9734 60.2738 44.8655 70.0265 56.9867 70.0265C69.108 70.0265 79 60.1345 79 48.0133C79 35.8921 69.108 26 56.9867 26ZM56.9867 56.0941C52.5284 56.0941 48.7666 52.3323 48.7666 47.8739C48.7666 43.4156 52.5284 39.6538 56.9867 39.6538C61.4451 39.6538 65.2069 43.4156 65.2069 47.8739C65.0676 52.4716 61.4451 56.0941 56.9867 56.0941Z" fill="white"/>
<path d="M34.8335 32.2696V64.3143H27.0313L17 32.2696H34.8335Z" fill="white"/>
</svg>
