<svg width="170" height="310" viewBox="0 0 170 310" fill="none" xmlns="http://www.w3.org/2000/svg">
<mask id="mask0_366_125" style="mask-type:alpha" maskUnits="userSpaceOnUse" x="0" y="0" width="170" height="310">
<rect width="170" height="310" fill="#FAFAFA"/>
</mask>
<g mask="url(#mask0_366_125)">
<rect width="170" height="310" fill="#FAFAFA"/>
<rect width="170" height="33" fill="#F4F4F5"/>
<line y1="33.5" x2="170" y2="33.5" stroke="#E5E7EB"/>
<path d="M11 14C11 11.7909 12.7909 10 15 10H20.697C22.9061 10 24.697 11.7909 24.697 14V19.697C24.697 21.9061 22.9061 23.697 20.697 23.697H15C12.7909 23.697 11 21.9061 11 19.697V14Z" fill="#D1D5DB"/>
<path d="M35 17C35 14.2386 37.2386 12 40 12H130C132.761 12 135 14.2386 135 17C135 19.7614 132.761 22 130 22H40C37.2386 22 35 19.7614 35 17Z" fill="#D1D5DB"/>
</g>
</svg>
