<svg width="170" height="310" viewBox="0 0 170 310" fill="none" xmlns="http://www.w3.org/2000/svg">
<mask id="mask0_366_94" style="mask-type:alpha" maskUnits="userSpaceOnUse" x="0" y="0" width="170" height="310">
<rect width="170" height="310" fill="#FAFAFA"/>
</mask>
<g mask="url(#mask0_366_94)">
<rect width="170" height="310" fill="#FAFAFA"/>
<rect y="277" width="170" height="33" fill="#F4F4F5"/>
<line y1="277.5" x2="170" y2="277.5" stroke="#E5E7EB"/>
<circle cx="83.7879" cy="294.561" r="6.84848" fill="#D1D5DB"/>
<path d="M29 291.712C29 289.503 30.7909 287.712 33 287.712H38.697C40.9061 287.712 42.697 289.503 42.697 291.712V297.409C42.697 299.618 40.9061 301.409 38.697 301.409H33C30.7909 301.409 29 299.618 29 297.409V291.712Z" fill="#D1D5DB"/>
<path d="M131.691 289.147C132.453 287.775 134.426 287.775 135.188 289.147L140.349 298.438C141.09 299.771 140.126 301.409 138.601 301.409H128.278C126.753 301.409 125.789 299.771 126.529 298.438L131.691 289.147Z" fill="#D1D5DB"/>
<rect width="170" height="33" fill="#F4F4F5"/>
<path d="M11 14C11 11.7909 12.7909 10 15 10H20.697C22.9061 10 24.697 11.7909 24.697 14V19.697C24.697 21.9061 22.9061 23.697 20.697 23.697H15C12.7909 23.697 11 21.9061 11 19.697V14Z" fill="#D1D5DB"/>
<path d="M35 17C35 14.2386 37.2386 12 40 12H130C132.761 12 135 14.2386 135 17C135 19.7614 132.761 22 130 22H40C37.2386 22 35 19.7614 35 17Z" fill="#D1D5DB"/>
</g>
</svg>
