<svg width="128" height="128" viewBox="0 0 128 128" fill="none" xmlns="http://www.w3.org/2000/svg">
<mask id="mask0_371_2" style="mask-type:alpha" maskUnits="userSpaceOnUse" x="0" y="0" width="128" height="128">
<path d="M0 64C0 34.1261 0 19.1892 9.13338 9.78953C9.34894 9.56768 9.56768 9.34894 9.78953 9.13338C19.1892 0 34.1261 0 64 0C93.8739 0 108.811 0 118.21 9.13338C118.432 9.34894 118.651 9.56768 118.867 9.78953C128 19.1892 128 34.1261 128 64C128 93.8739 128 108.811 118.867 118.21C118.651 118.432 118.432 118.651 118.21 118.867C108.811 128 93.8739 128 64 128C34.1261 128 19.1892 128 9.78953 118.867C9.56768 118.651 9.34894 118.432 9.13338 118.21C0 108.811 0 93.8739 0 64Z" fill="url(#paint0_linear_371_2)"/>
</mask>
<g mask="url(#mask0_371_2)">
<path d="M0 64C0 34.1261 0 19.1892 9.13338 9.78953C9.34894 9.56768 9.56768 9.34894 9.78953 9.13338C19.1892 0 34.1261 0 64 0C93.8739 0 108.811 0 118.21 9.13338C118.432 9.34894 118.651 9.56768 118.867 9.78953C128 19.1892 128 34.1261 128 64C128 93.8739 128 108.811 118.867 118.21C118.651 118.432 118.432 118.651 118.21 118.867C108.811 128 93.8739 128 64 128C34.1261 128 19.1892 128 9.78953 118.867C9.56768 118.651 9.34894 118.432 9.13338 118.21C0 108.811 0 93.8739 0 64Z" fill="black"/>
<mask id="mask1_371_2" style="mask-type:alpha" maskUnits="userSpaceOnUse" x="-11" y="-11" width="150" height="150">
<path d="M-11 36.9452C-11 10.4658 10.4658 -11 36.9452 -11H91.055C117.534 -11 139 10.4658 139 36.9452V91.055C139 117.534 117.534 139 91.055 139H36.9452C10.4658 139 -11 117.534 -11 91.055V36.9452Z" fill="#1145FF"/>
</mask>
<g mask="url(#mask1_371_2)">
<path d="M-11 36.9452C-11 10.4658 10.4658 -11 36.9452 -11H91.055C117.534 -11 139 10.4658 139 36.9452V91.055C139 117.534 117.534 139 91.055 139H36.9452C10.4658 139 -11 117.534 -11 91.055V36.9452Z" fill="url(#paint1_linear_371_2)"/>
<path d="M-37.7153 85.4639C-42.7154 69.1923 -33.578 51.9482 -17.3064 46.9482L49.6678 26.3678C65.9394 21.3677 83.1835 30.5051 88.1839 46.7767L108.764 113.751C113.764 130.022 104.627 147.266 88.3549 152.266L21.3808 172.847C5.10921 177.847 -12.1348 168.71 -17.1349 152.438L-37.7153 85.4639Z" fill="#4D74FF"/>
<path d="M-63 107.247C-63 86.4421 -46.1341 69.5761 -25.3288 69.5761H49.3287C70.134 69.5761 87 86.4421 87 107.247V181.905C87 202.71 70.134 219.576 49.3287 219.576H-25.3288C-46.1341 219.576 -63 202.71 -63 181.905V107.247Z" fill="#89A3FF"/>
</g>
</g>
<defs>
<linearGradient id="paint0_linear_371_2" x1="132.949" y1="113.945" x2="-3.51306" y2="6.80881e-06" gradientUnits="userSpaceOnUse">
<stop/>
<stop offset="1"/>
</linearGradient>
<linearGradient id="paint1_linear_371_2" x1="64" y1="-11" x2="64" y2="139" gradientUnits="userSpaceOnUse">
<stop stop-color="#184BFC"/>
<stop offset="1" stop-color="#567BFF"/>
</linearGradient>
</defs>
</svg>
